<?xml version="1.0" encoding="UTF-8"?><svg xmlns="http://www.w3.org/2000/svg" viewBox="0 0 399.16 467.24"><defs><style>.d{stroke:#0095e1;}.d,.e{fill:none;stroke-width:20px;}.e,.f{stroke:#00dc00;}.f{fill:#00dc00;}</style></defs><g id="a"/><g id="b"><g id="c"><g><path class="e" d="M19.67,10H376.19s24.21,122.84,6.48,228.54c-16.49,98.38-70.43,178.55-184.74,218.45,0,0-146.4-21.32-183.11-231.43C5.3,171.07,11.47,90.36,19.67,10Z"/><path class="d" d="M72.19,60.68h249.88s57.34,262.61-123.33,334.24c0,0-163.16-35.02-126.55-334.24Z"/><path class="f" d="M253.32,167.1c0-30.12-24.62-54.53-54.98-54.53s-54.98,24.41-54.98,54.53c0,18.15,8.98,34.19,22.74,44.1v79.88h60.48v-77.26c16-9.53,26.74-26.86,26.74-46.72Z"/></g></g></g></svg>